<?xml version="1.0" standalone="no"?>
<!DOCTYPE svg PUBLIC "-//W3C//DTD SVG 20010904//EN"
 "http://www.w3.org/TR/2001/REC-SVG-20010904/DTD/svg10.dtd">
<svg version="1.0" xmlns="http://www.w3.org/2000/svg"
 width="1217.000000pt" height="1217.000000pt" viewBox="0 0 1217.000000 1217.000000"
 preserveAspectRatio="xMidYMid meet">
<metadata>
Created by potrace 1.11, written by Peter Selinger 2001-2013
</metadata>
<g transform="translate(0.000000,1217.000000) scale(0.100000,-0.100000)"
fill="#000000" stroke="none">
<path d="M1754 12160 c-14 -5 0 -29 86 -150 9 -12 193 -277 230 -330 6 -8 32
-45 58 -82 26 -37 67 -97 92 -133 25 -36 63 -92 86 -123 22 -31 65 -93 95
-137 31 -44 190 -273 355 -510 165 -236 307 -441 316 -455 10 -14 55 -79 102
-145 46 -66 103 -147 126 -180 23 -33 109 -157 191 -275 82 -118 156 -223 164
-233 8 -9 15 -21 15 -26 0 -5 3 -11 8 -13 4 -1 33 -41 65 -88 32 -47 88 -128
125 -181 37 -53 105 -151 152 -218 47 -68 117 -168 156 -224 445 -637 453
-649 444 -666 -5 -10 -91 -139 -192 -287 -101 -148 -190 -279 -198 -291 -8
-12 -73 -106 -143 -210 -71 -103 -174 -255 -230 -338 -56 -82 -146 -213 -198
-290 -53 -77 -120 -176 -150 -220 -30 -44 -57 -84 -62 -90 -4 -5 -42 -62 -85
-125 -43 -63 -131 -194 -197 -290 -192 -283 -337 -494 -449 -660 -270 -397
-483 -710 -592 -870 -51 -74 -160 -234 -242 -355 l-149 -221 3 -99 c4 -180 26
-489 39 -554 2 -13 7 -49 10 -80 4 -31 8 -63 10 -71 4 -15 13 -66 20 -110 2
-14 11 -59 20 -100 9 -41 18 -83 20 -92 21 -102 122 -422 151 -480 8 -15 14
-29 13 -30 -4 -13 115 -267 176 -376 38 -68 148 -244 165 -265 5 -6 49 -63 97
-126 109 -142 263 -304 408 -429 112 -96 336 -251 455 -315 36 -19 82 -44 103
-56 152 -86 562 -247 777 -305 30 -8 98 -27 150 -41 52 -15 106 -28 120 -31
14 -3 41 -9 60 -14 41 -10 219 -46 270 -55 186 -30 346 -55 400 -60 36 -4 72
-8 80 -10 8 -1 56 -6 105 -10 50 -4 108 -9 130 -11 268 -24 850 -24 1085 1 19
2 64 7 100 10 36 4 76 8 90 10 14 2 50 6 80 10 30 3 80 10 110 15 30 5 78 12
105 16 28 3 52 8 55 9 3 2 26 6 50 10 25 4 77 13 115 22 39 8 81 17 95 19 22
5 87 19 130 29 109 26 399 112 422 125 10 6 22 10 28 10 19 0 257 98 363 149
157 76 427 237 542 323 606 454 1007 985 1293 1718 26 67 88 250 97 290 2 8
20 76 39 150 19 74 37 153 40 175 4 22 8 47 11 55 4 15 13 72 20 125 3 17 7
47 11 69 7 43 8 55 20 206 5 58 9 2015 9 4349 l0 4243 -1535 0 c-844 0 -1545
-1 -1556 -1 -21 -1 -137 -153 -386 -508 -47 -66 -725 -1002 -794 -1096 l-72
-98 -39 53 c-22 29 -181 249 -353 488 -173 239 -318 440 -322 445 -10 12 -317
438 -410 568 -35 49 -74 103 -89 119 l-25 30 -1537 2 c-846 0 -1544 -1 -1553
-4z m5773 -6560 c-1 -1114 -6 -2036 -9 -2050 -4 -14 -9 -55 -13 -92 -7 -76 -9
-86 -36 -223 -38 -193 -124 -409 -217 -549 -123 -185 -318 -347 -547 -456 -88
-42 -230 -94 -290 -106 -17 -3 -68 -15 -85 -19 -3 -1 -32 -5 -65 -9 -33 -5
-69 -10 -80 -12 -25 -5 -233 -5 -300 0 -54 4 -185 25 -194 30 -3 2 -22 7 -41
10 -19 3 -62 14 -95 25 -353 110 -630 337 -755 614 -53 121 -105 298 -124 427
-12 83 -18 127 -21 155 -7 55 -18 239 -19 320 -2 75 0 83 29 125 17 25 58 83
90 130 83 121 336 488 510 740 82 118 184 267 227 330 43 63 113 165 155 225
42 61 103 151 137 200 34 50 63 92 66 95 6 6 20 27 132 190 129 189 236 344
248 357 5 7 10 16 10 22 0 5 3 11 8 13 4 2 25 30 48 63 22 33 69 101 103 150
34 50 92 133 127 185 155 226 219 319 378 550 161 232 235 340 506 732 l115
167 3 -157 c1 -86 1 -1068 -1 -2182z"/>
</g>
</svg>
